<?xml version="1.0" standalone="no"?>
<!DOCTYPE svg PUBLIC "-//W3C//DTD SVG 20010904//EN"
 "http://www.w3.org/TR/2001/REC-SVG-20010904/DTD/svg10.dtd">
<svg version="1.0" xmlns="http://www.w3.org/2000/svg"
 width="90.000000pt" height="90.000000pt" viewBox="0 0 90.000000 90.000000"
 preserveAspectRatio="xMidYMid meet">
<metadata>
Created by potrace 1.11, written by Peter Selinger 2001-2013
</metadata>
<g transform="translate(0.000000,90.000000) scale(0.100000,-0.100000)"
fill="#000000" stroke="none">
<path d="M0 450 l0 -450 450 0 450 0 0 450 0 450 -450 0 -450 0 0 -450z m280
350 c0 -30 1 -30 55 -30 54 0 55 0 55 -30 0 -30 -1 -30 -55 -30 -54 0 -55 0
-55 30 0 27 -3 30 -30 30 -27 0 -30 3 -30 30 0 27 3 30 30 30 27 0 30 -3 30
-30z m400 -5 c0 -21 -5 -25 -30 -25 -27 0 -30 -3 -30 -30 0 -30 -1 -30 -55
-30 -54 0 -55 0 -55 30 0 30 1 30 55 30 52 0 55 1 55 25 0 21 5 25 30 25 25 0
30 -4 30 -25z m-120 -285 l0 -30 -110 0 -110 0 0 30 0 30 110 0 110 0 0 -30z"/>
</g>
</svg>
