<?xml version="1.0" encoding="UTF-8" standalone="no"?>
<!-- Created with Inkscape (http://www.inkscape.org/) -->

<svg
   width="50mm"
   height="50mm"
   viewBox="0 0 50 50"
   version="1.1"
   id="svg5"
   sodipodi:docname="kitsune.svg"
   inkscape:version="1.1 (c68e22c387, 2021-05-23)"
   xmlns:inkscape="http://www.inkscape.org/namespaces/inkscape"
   xmlns:sodipodi="http://sodipodi.sourceforge.net/DTD/sodipodi-0.dtd"
   xmlns:xlink="http://www.w3.org/1999/xlink"
   xmlns="http://www.w3.org/2000/svg"
   xmlns:svg="http://www.w3.org/2000/svg">
  <sodipodi:namedview
     id="namedview7"
     pagecolor="#ffffff"
     bordercolor="#666666"
     borderopacity="1.0"
     inkscape:pageshadow="2"
     inkscape:pageopacity="0.0"
     inkscape:pagecheckerboard="0"
     inkscape:document-units="mm"
     showgrid="false"
     inkscape:zoom="4"
     inkscape:cx="97.375"
     inkscape:cy="87.375"
     inkscape:window-width="1920"
     inkscape:window-height="1017"
     inkscape:window-x="-8"
     inkscape:window-y="525"
     inkscape:window-maximized="1"
     inkscape:current-layer="layer1"
     showguides="false" />
  <defs
     id="defs2">
    <linearGradient
       inkscape:collect="always"
       id="linearGradient1898">
      <stop
         style="stop-color:#ff7f2a;stop-opacity:1"
         offset="0"
         id="stop1894" />
      <stop
         style="stop-color:#ffccaa;stop-opacity:1"
         offset="1"
         id="stop1896" />
    </linearGradient>
    <inkscape:path-effect
       effect="mirror_symmetry"
       start_point="148.4,115.82772"
       end_point="148.4,117.65769"
       center_point="148.4,116.74271"
       id="path-effect944"
       is_visible="true"
       lpeversion="1.1"
       mode="vertical"
       discard_orig_path="false"
       fuse_paths="true"
       oposite_fuse="true"
       split_items="false"
       split_open="false" />
    <inkscape:path-effect
       effect="mirror_symmetry"
       start_point="156.50954,108.6754"
       end_point="156.50954,111.86583"
       center_point="156.50954,110.27061"
       id="path-effect10188"
       is_visible="true"
       lpeversion="1.1"
       mode="vertical"
       discard_orig_path="false"
       fuse_paths="false"
       oposite_fuse="true"
       split_items="false"
       split_open="false" />
    <inkscape:path-effect
       effect="mirror_symmetry"
       start_point="159.87444,86.010998"
       end_point="159.87444,100.14633"
       center_point="159.87444,93.078664"
       id="path-effect6235"
       is_visible="true"
       lpeversion="1.1"
       mode="vertical"
       discard_orig_path="false"
       fuse_paths="true"
       oposite_fuse="true"
       split_items="false"
       split_open="false" />
    <inkscape:path-effect
       effect="mirror_symmetry"
       start_point="-50,103.21"
       end_point="-50,100"
       center_point="147.4539,74.274039"
       id="path-effect3481"
       is_visible="true"
       lpeversion="1.1"
       mode="vertical"
       discard_orig_path="false"
       fuse_paths="true"
       oposite_fuse="true"
       split_items="false"
       split_open="false" />
    <linearGradient
       inkscape:collect="always"
       xlink:href="#linearGradient1898"
       id="linearGradient1900"
       x1="111.59781"
       y1="46.867165"
       x2="108.98373"
       y2="60.647957"
       gradientUnits="userSpaceOnUse" />
  </defs>
  <g
     inkscape:label="Layer 1"
     inkscape:groupmode="layer"
     id="layer1">
    <path
       style="fill:url(#linearGradient1900);stroke:#000000;stroke-width:0.365;stroke-linecap:butt;stroke-linejoin:round;stroke-opacity:1;fill-opacity:1;stroke-miterlimit:4;stroke-dasharray:none"
       d="m 109.24519,66.120034 1.26291,-1.4e-5 2.27569,-4.26135 c 0,0 2.29306,-1.044932 3.30199,-1.78485 1.10894,-0.813256 2.09313,-1.805828 2.9618,-2.87191 0.78105,-0.958544 1.26921,-2.125866 1.99117,-3.12967 0.36121,-0.50222 1.16752,-1.44262 1.16752,-1.44262 l -2.20865,1.07277 2.80814,-2.49262 -2.39796,0.78881 2.77658,-1.98779 -2.74503,0.75726 2.39796,-2.27176 -2.33486,0.44173 c -0.19387,0.03668 -0.27735,-0.02239 -0.48042,-0.4194 -0.29136,-0.569633 -0.16034,-1.060167 -0.0875,-1.56838 0.18073,-1.260866 0.79923,-2.495336 0.99977,-3.784663 0.18599,-1.195765 0.28591,-2.420098 0.18267,-3.625828 -0.10738,-1.254101 -0.34128,-2.523464 -0.82837,-3.684087 -1.00459,-2.393734 -2.69558,-5.609326 -4.22578,-6.541814 -0.005,-0.0028 -0.009,-0.0055 -0.0137,-0.0083 -0.56682,-0.279904 -0.86535,-0.13647 -0.86535,-0.13647 0,0 -0.53462,0.191212 -1.08635,0.995414 -0.55173,0.804202 -1.2283,2.876835 -1.59772,4.076223 -0.36942,1.199388 -0.6159,2.604514 -0.70017,3.073033 l -0.75567,4.201184 c -0.0954,0.5304 -1.15312,0.550407 -1.79867,0.511991 -0.64555,0.03842 -1.70327,0.01841 -1.79867,-0.511991 l -0.75567,-4.201184 c -0.0843,-0.468519 -0.33075,-1.873645 -0.70017,-3.073033 -0.36942,-1.199388 -1.04599,-3.272021 -1.59772,-4.076223 -0.55173,-0.804202 -1.08635,-0.995414 -1.08635,-0.995414 0,0 -0.29853,-0.143434 -0.86535,0.13647 -0.005,0.0028 -0.009,0.0055 -0.0137,0.0083 -1.5302,0.932488 -3.221188,4.14808 -4.225778,6.541814 -0.48709,1.160623 -0.72099,2.429986 -0.82837,3.684087 -0.10324,1.20573 -0.0033,2.430063 0.18267,3.625828 0.20054,1.289327 0.81904,2.523797 0.99977,3.784663 0.07284,0.508213 0.20386,0.998747 -0.0875,1.56838 -0.20307,0.39701 -0.28655,0.45608 -0.48042,0.4194 l -2.33486,-0.44173 2.39796,2.27176 -2.74503,-0.75726 2.77658,1.98779 -2.39796,-0.78881 2.80814,2.49262 -2.20865,-1.07277 c 0,0 0.80631,0.9404 1.16752,1.44262 0.72196,1.003804 1.21012,2.171126 1.99117,3.12967 0.868668,1.066082 1.852858,2.058654 2.961798,2.87191 1.00893,0.739918 3.30199,1.78485 3.30199,1.78485 l 2.27569,4.26135 z"
       id="path3479"
       inkscape:path-effect="#path-effect3481"
       inkscape:original-d="m 108.66747,66.12004 1.84063,-2e-5 2.27569,-4.26135 c 0,0 2.29306,-1.044932 3.30199,-1.78485 1.10894,-0.813256 2.09313,-1.805828 2.9618,-2.87191 0.78105,-0.958544 1.26921,-2.125866 1.99117,-3.12967 0.36121,-0.50222 1.16752,-1.44262 1.16752,-1.44262 l -2.20865,1.07277 2.80814,-2.49262 -2.39796,0.78881 2.77658,-1.98779 -2.74503,0.75726 2.39796,-2.27176 -2.33486,0.44173 c -0.19387,0.03668 -0.27735,-0.02239 -0.48042,-0.4194 -0.29136,-0.569633 -0.16034,-1.060167 -0.0875,-1.56838 0.18073,-1.260866 0.79923,-2.495336 0.99977,-3.784663 0.18599,-1.195765 0.28591,-2.420098 0.18267,-3.625828 -0.10738,-1.254101 -0.34128,-2.523464 -0.82837,-3.684087 -1.00459,-2.393734 -2.69558,-5.609326 -4.22578,-6.541814 -0.005,-0.0028 -0.009,-0.0055 -0.0137,-0.0083 -0.56682,-0.279904 -0.86535,-0.13647 -0.86535,-0.13647 0,0 -0.53462,0.191212 -1.08635,0.995414 -0.55173,0.804202 -1.2283,2.876835 -1.59772,4.076223 -0.36942,1.199388 -0.6159,2.604514 -0.70017,3.073033 l -0.75567,4.201184 c -0.13816,0.768115 -2.29452,0.465821 -2.29452,0.465821"
       sodipodi:nodetypes="cccssscccccccsssscsscczzssc"
       transform="translate(-84.245191,-23.738581)" />
    <path
       style="fill:#000000;fill-opacity:1;stroke:#000000;stroke-width:0.264583px;stroke-linecap:butt;stroke-linejoin:miter;stroke-opacity:1"
       d="m 158.43748,99.830814 c 0.28711,-0.92077 0.58676,-3.268806 0.37862,-4.890574 -0.19366,-1.508995 -0.70037,-3.049542 -1.20072,-4.550275 -0.56138,-1.683793 -2.64932,-4.84124 -2.86645,-4.560868 -0.88259,1.139639 -1.1675,2.735745 -1.39134,4.09436 -0.41718,2.5321 -0.44724,5.15876 0,7.698711 0.005,0.0282 0.0259,0.05126 0.043,0.07392 0.97378,1.289576 2.47838,1.793228 4.01013,2.420322 0.23901,0.0962 0.9031,0.0318 1.02676,-0.285596 z m -19.8113,0 c -0.28711,-0.92077 -0.58676,-3.268806 -0.37862,-4.890574 0.19366,-1.508995 0.70037,-3.049542 1.20072,-4.550275 0.56138,-1.683793 2.64932,-4.84124 2.86645,-4.560868 0.88259,1.139639 1.1675,2.735745 1.39134,4.09436 0.41718,2.5321 0.44724,5.15876 0,7.698711 -0.005,0.0282 -0.0259,0.05126 -0.043,0.07392 -0.97378,1.289576 -2.47838,1.793228 -4.01013,2.420322 -0.23901,0.0962 -0.9031,0.0318 -1.02676,-0.285596 z"
       id="path6233"
       inkscape:path-effect="#path-effect6235"
       inkscape:original-d="m 158.43748,99.830814 c 0.28711,-0.92077 0.58676,-3.268806 0.37862,-4.890574 -0.19366,-1.508995 -0.70037,-3.049542 -1.20072,-4.550275 -0.56138,-1.683793 -2.64932,-4.84124 -2.86645,-4.560868 -0.88259,1.139639 -1.1675,2.735745 -1.39134,4.09436 -0.41718,2.5321 -0.44724,5.15876 0,7.698711 0.005,0.0282 0.0259,0.05126 0.043,0.07392 0.97378,1.289576 2.47838,1.793228 4.01013,2.420322 0.23901,0.0962 0.9031,0.0318 1.02676,-0.285596 z"
       sodipodi:nodetypes="csssssscc"
       transform="translate(-123.53183,-79.139072)" />
    <path
       style="fill:#000000;stroke:#000000;stroke-width:0.264583px;stroke-linecap:butt;stroke-linejoin:round;stroke-opacity:1;fill-opacity:1"
       d="m 152.66094,111.86583 1.05976,-2.64381 2.78884,-0.54662 v 0 l -2.3984,1.18247 z m -7.83576,0 -1.05976,-2.64381 -2.78884,-0.54662 v 0 l 2.3984,1.18247 z"
       id="path10026"
       inkscape:path-effect="#path-effect10188"
       inkscape:original-d="m 152.66094,111.86583 1.05976,-2.64381 2.78884,-0.54662 v 0 l -2.3984,1.18247 z"
       transform="translate(-123.74306,-79.100303)" />
    <path
       style="fill:#000000;stroke:#000000;stroke-width:0.264583px;stroke-linecap:butt;stroke-linejoin:round;stroke-opacity:1;fill-opacity:1"
       d="m 148.29604,115.8508 1.86035,0.008 -1.86035,1.64467 -1.86035,-1.64467 z"
       id="path942"
       inkscape:path-effect="#path-effect944"
       inkscape:original-d="m 148.12175,115.85003 2.03464,0.009 -2.18573,1.93233"
       inkscape:transform-center-x="-2.2310697"
       inkscape:transform-center-y="0.29178305"
       transform="translate(-123.29604,-76.200042)"
       sodipodi:nodetypes="ccc" />
  </g>
</svg>
