<?xml version="1.0" standalone="no"?>
<!DOCTYPE svg PUBLIC "-//W3C//DTD SVG 20010904//EN"
 "http://www.w3.org/TR/2001/REC-SVG-20010904/DTD/svg10.dtd">
<svg version="1.0" xmlns="http://www.w3.org/2000/svg"
 width="700.000000pt" height="700.000000pt" viewBox="0 0 700.000000 700.000000"
 preserveAspectRatio="xMidYMid meet">
<metadata>
Created by potrace 1.14, written by Peter Selinger 2001-2017
</metadata>
<g transform="translate(0.000000,700.000000) scale(0.100000,-0.100000)"
fill="#000000" stroke="none">
<path d="M2253 6961 c-28 -9 -69 -30 -90 -46 -47 -35 -147 -135 -193 -195 -19
-25 -37 -47 -41 -50 -14 -12 -151 -224 -204 -315 -103 -179 -291 -564 -327
-670 -5 -16 -13 -39 -18 -50 -36 -86 -90 -307 -105 -430 -4 -27 -8 -61 -11
-75 -9 -56 -18 -201 -18 -290 0 -104 12 -322 19 -342 2 -7 6 -37 10 -67 3 -30
8 -64 10 -75 2 -12 6 -34 9 -51 6 -49 34 -150 81 -300 87 -275 114 -404 112
-530 -2 -92 -17 -139 -67 -204 l-18 -25 -124 23 c-67 12 -134 25 -148 27 -14
3 -56 12 -95 20 -38 7 -77 14 -85 14 -8 0 17 -30 55 -66 254 -241 364 -348
362 -350 -2 -2 -415 112 -478 131 -30 10 -1 -12 274 -209 114 -81 207 -150
207 -153 0 -2 -3 -2 -7 0 -9 5 -411 137 -418 137 -3 0 35 -35 83 -77 48 -42
107 -95 132 -117 25 -23 79 -70 119 -106 113 -99 178 -162 156 -151 -57 30
-367 181 -371 181 -9 0 11 -28 46 -67 75 -81 192 -244 274 -381 47 -79 86
-145 86 -148 0 -11 150 -231 197 -288 53 -65 353 -371 394 -402 113 -85 218
-161 239 -174 76 -45 264 -144 387 -204 78 -38 144 -76 147 -85 3 -9 27 -56
53 -106 27 -49 73 -135 102 -190 30 -55 66 -122 81 -150 15 -27 53 -99 85
-160 32 -60 67 -125 77 -143 l20 -32 251 2 250 3 17 30 c9 17 40 75 69 130 30
55 66 123 81 150 15 28 53 100 86 160 32 61 78 146 102 190 24 44 48 92 54
106 9 20 49 45 182 110 376 185 528 290 766 529 86 85 169 171 185 190 100
118 202 271 313 470 51 92 155 241 236 337 95 114 103 125 83 117 -8 -3 -91
-43 -186 -89 -177 -87 -215 -102 -165 -63 16 13 47 39 69 59 22 21 51 47 65
59 30 26 149 131 164 145 6 6 50 45 99 88 48 42 85 77 82 77 -7 0 -409 -132
-419 -138 -5 -3 -6 -1 -3 5 3 5 37 31 74 56 37 26 91 64 120 85 28 20 104 75
170 121 65 46 122 87 126 91 9 8 -61 -10 -333 -86 -85 -24 -156 -42 -157 -40
-2 2 58 61 133 132 269 254 299 284 289 284 -5 0 -82 -14 -170 -31 -88 -16
-184 -35 -214 -40 -74 -14 -91 -4 -130 76 -32 65 -33 70 -28 164 9 152 28 239
112 506 61 194 66 216 90 355 36 216 48 475 31 665 -7 88 -34 280 -42 307 -3
10 -7 30 -10 45 -10 54 -36 149 -64 230 -29 82 -38 106 -91 221 -16 35 -29 65
-29 68 0 12 -183 370 -235 459 -222 382 -434 608 -583 620 -55 4 -107 -22
-173 -86 -117 -114 -178 -236 -310 -619 -111 -320 -169 -560 -252 -1040 -3
-14 -12 -63 -20 -110 -9 -47 -18 -98 -20 -115 -3 -16 -14 -79 -26 -140 -11
-60 -23 -126 -26 -145 -12 -74 -26 -110 -52 -129 -87 -69 -372 -87 -550 -36
-58 17 -109 61 -117 102 -13 68 -72 400 -91 508 -2 17 -7 39 -9 50 -4 22 -32
174 -40 218 -14 77 -33 180 -41 217 -3 14 -7 34 -9 45 -2 11 -9 38 -14 60 -6
22 -13 51 -16 65 -16 83 -154 527 -185 595 -5 11 -28 67 -50 125 -79 200 -161
323 -264 394 -64 44 -106 51 -174 27z m185 -298 c67 -111 105 -206 147 -368
23 -87 67 -313 79 -405 4 -25 8 -61 11 -80 12 -90 18 -148 31 -315 5 -63 5
-485 -1 -540 -2 -27 -7 -81 -10 -120 -3 -38 -8 -81 -10 -95 -2 -14 -7 -47 -10
-75 -6 -52 -14 -104 -20 -137 -6 -30 -87 -120 -158 -176 -53 -43 -190 -132
-201 -132 -2 0 -46 -20 -97 -44 -85 -40 -197 -87 -289 -122 -61 -23 -160 -12
-194 21 -16 17 -41 97 -51 165 -4 24 -8 47 -10 50 -2 3 -6 30 -9 60 -4 30 -9
66 -11 80 -22 129 -25 493 -6 610 7 41 15 89 17 105 22 137 87 372 181 655 48
144 49 147 125 300 143 290 374 630 428 630 11 0 32 -24 58 -67z m2242 20
c105 -119 281 -402 386 -618 74 -153 230 -624 258 -778 2 -15 7 -35 10 -45 7
-23 36 -186 43 -247 13 -105 5 -477 -12 -567 -3 -11 -7 -46 -11 -77 -7 -62
-11 -85 -18 -109 -3 -9 -7 -28 -10 -42 -15 -88 -20 -102 -47 -124 -32 -27
-102 -42 -152 -32 -48 9 -361 144 -452 194 -105 59 -213 141 -274 209 -50 56
-58 77 -76 218 -3 23 -7 50 -9 60 -2 11 -7 63 -11 115 -4 52 -9 109 -11 125
-5 38 -5 479 0 525 2 19 7 76 11 125 4 50 8 103 10 120 6 48 17 128 21 150 2
10 6 37 9 60 36 258 99 492 173 640 41 82 86 145 103 145 10 0 36 -21 59 -47z
m-2100 -4348 c19 -3 38 -9 41 -13 10 -10 189 -456 185 -460 -2 -2 -60 75 -130
171 l-126 174 -215 106 c-118 59 -215 108 -215 110 0 1 96 -16 213 -40 116
-23 228 -45 247 -48z m2309 91 c-4 -4 -325 -165 -401 -200 -29 -14 -65 -57
-164 -194 -70 -98 -131 -181 -135 -186 -8 -9 27 83 129 333 l58 145 79 18 c44
9 96 20 115 23 19 3 67 12 107 20 39 8 87 17 105 20 27 5 53 11 107 24 2 1 2
-1 0 -3z m-1149 -1896 l45 -1 -41 -37 c-60 -54 -174 -155 -212 -187 -29 -25
-35 -26 -50 -13 -9 8 -32 28 -51 44 -18 16 -48 43 -66 60 -18 17 -60 54 -94
82 l-61 51 58 3 c48 3 309 2 472 -2z"/>
</g>
</svg>
