<?xml version="1.0" standalone="no"?>
<!DOCTYPE svg PUBLIC "-//W3C//DTD SVG 20010904//EN"
 "http://www.w3.org/TR/2001/REC-SVG-20010904/DTD/svg10.dtd">
<svg version="1.0" xmlns="http://www.w3.org/2000/svg"
 width="500.000000pt" height="500.000000pt" viewBox="0 0 500.000000 500.000000"
 preserveAspectRatio="xMidYMid meet">
<metadata>
Created by potrace 1.11, written by Peter Selinger 2001-2013
</metadata>
<g transform="translate(0.000000,500.000000) scale(0.100000,-0.100000)"
fill="#000000" stroke="none">
<path d="M2455 4976 c-22 -13 -141 -82 -265 -153 -124 -72 -238 -138 -255
-147 -16 -9 -46 -26 -65 -37 -73 -44 -366 -213 -395 -228 -16 -9 -31 -19 -33
-23 -2 -5 -7 -8 -11 -8 -5 0 -91 -48 -192 -107 -101 -58 -204 -117 -228 -131
-25 -14 -68 -38 -95 -55 -28 -16 -64 -38 -81 -47 -16 -9 -91 -52 -165 -95 -74
-43 -151 -87 -170 -97 -19 -11 -65 -38 -101 -60 l-66 -41 1 -1250 1 -1250 115
-66 c64 -36 154 -88 200 -116 47 -27 87 -50 90 -50 3 0 16 -8 30 -17 21 -13
465 -271 580 -336 19 -11 76 -43 125 -72 50 -29 108 -62 130 -75 22 -12 182
-104 355 -205 173 -100 366 -211 427 -247 l113 -65 342 198 c189 109 426 246
528 304 102 59 257 149 345 200 88 51 178 103 200 115 22 13 200 115 395 228
l355 205 1 1251 1 1251 -101 59 c-56 32 -117 68 -136 79 -19 11 -75 43 -123
71 -49 28 -93 51 -98 51 -5 0 -9 5 -9 10 0 6 -4 10 -10 10 -5 0 -55 27 -111
60 -55 33 -102 60 -103 60 -2 0 -76 43 -165 95 -90 52 -164 95 -165 95 -2 0
-76 43 -165 95 -90 52 -165 95 -167 95 -2 0 -27 15 -56 33 -29 19 -75 46 -103
62 -27 15 -182 103 -342 196 -161 93 -299 172 -305 174 -7 2 -31 -6 -53 -19z
m951 -900 l909 -524 3 -1050 2 -1050 -672 -388 c-370 -213 -780 -449 -910
-525 l-237 -138 -773 446 c-425 245 -834 480 -908 523 l-135 78 0 1052 0 1052
905 523 c498 288 906 524 906 524 1 1 410 -235 910 -523z"/>
<path d="M2722 3527 c-6 -7 -33 -91 -61 -187 -27 -96 -66 -231 -86 -300 -450
-1551 -496 -1715 -486 -1736 7 -17 29 -29 81 -44 65 -19 74 -20 95 -6 15 10
29 35 39 68 8 29 147 512 309 1073 162 561 298 1034 301 1051 8 38 -12 58 -80
79 -60 18 -98 19 -112 2z"/>
<path d="M1377 2822 c-316 -316 -407 -413 -407 -432 0 -37 794 -830 831 -830
19 0 43 18 88 65 61 63 62 65 47 92 -8 15 -159 172 -335 348 -177 176 -321
324 -321 330 0 5 151 161 336 346 l336 336 -15 30 c-21 39 -112 123 -134 123
-10 0 -191 -173 -426 -408z"/>
<path d="M3117 3172 c-38 -39 -57 -66 -57 -82 0 -20 74 -99 330 -355 182 -181
330 -334 330 -340 0 -5 -148 -158 -330 -340 -280 -280 -330 -335 -330 -359 0
-41 95 -136 136 -136 25 0 87 58 431 403 346 345 403 406 403 431 0 25 -56 85
-387 418 -363 364 -422 418 -455 418 -8 0 -39 -26 -71 -58z"/>
</g>
</svg>
