<?xml version="1.0" standalone="no"?>
<!DOCTYPE svg PUBLIC "-//W3C//DTD SVG 20010904//EN"
 "http://www.w3.org/TR/2001/REC-SVG-20010904/DTD/svg10.dtd">
<svg version="1.0" xmlns="http://www.w3.org/2000/svg"
 width="500.000000pt" height="500.000000pt" viewBox="0 0 500.000000 500.000000"
 preserveAspectRatio="xMidYMid meet">
<metadata>
Created by potrace 1.11, written by Peter Selinger 2001-2013
</metadata>
<g transform="translate(0.000000,500.000000) scale(0.100000,-0.100000)"
fill="#000000" stroke="none">
<path d="M0 2500 l0 -2500 2500 0 2500 0 0 2500 0 2500 -2500 0 -2500 0 0
-2500z m4750 0 l0 -2250 -2250 0 -2250 0 0 2250 0 2250 2250 0 2250 0 0 -2250z"/>
<path d="M1298 3980 c-20 -11 -47 -36 -60 -57 l-23 -38 -3 -1370 c-3 -1527 -7
-1427 66 -1483 l35 -27 1176 -2 1176 -3 40 23 c26 14 48 37 63 67 l22 44 0
991 c0 826 -3 999 -15 1044 -31 117 -52 143 -368 459 -181 179 -318 308 -342
320 -107 53 -87 52 -939 52 -762 -1 -792 -2 -828 -20z m1412 -558 c0 -351 0
-359 23 -402 44 -88 28 -84 455 -90 l377 -5 3 -852 2 -853 -1070 0 -1070 0 0
1280 0 1280 640 0 640 0 0 -358z m538 66 c266 -265 314 -320 295 -339 -5 -5
-141 -8 -309 -7 l-299 3 -3 308 -2 307 22 0 c16 0 102 -80 296 -272z"/>
<path d="M1890 2707 c-23 -12 -25 -18 -28 -97 -2 -71 0 -87 14 -97 26 -19
1222 -19 1248 0 14 10 16 26 14 97 -3 79 -5 85 -28 97 -19 10 -159 13 -610 13
-451 0 -591 -3 -610 -13z"/>
<path d="M1872 2268 c-7 -7 -12 -44 -12 -95 0 -71 3 -84 19 -93 13 -6 226 -10
621 -10 395 0 608 4 621 10 16 9 19 22 19 93 0 51 -5 88 -12 95 -17 17 -1239
17 -1256 0z"/>
<path d="M1882 1844 c-20 -13 -22 -24 -22 -94 0 -73 2 -81 24 -95 20 -14 96
-15 630 -13 526 3 608 5 616 18 5 8 10 50 10 92 0 68 -3 79 -22 92 -20 14 -95
16 -618 16 -523 0 -598 -2 -618 -16z"/>
</g>
</svg>
