<?xml version="1.0" standalone="no"?>
<!DOCTYPE svg PUBLIC "-//W3C//DTD SVG 20010904//EN"
 "http://www.w3.org/TR/2001/REC-SVG-20010904/DTD/svg10.dtd">
<svg version="1.0" xmlns="http://www.w3.org/2000/svg"
 width="500.000000pt" height="500.000000pt" viewBox="0 0 500.000000 500.000000"
 preserveAspectRatio="xMidYMid meet">
<metadata>
Created by potrace 1.11, written by Peter Selinger 2001-2013
</metadata>
<g transform="translate(0.000000,500.000000) scale(0.100000,-0.100000)"
fill="#000000" stroke="none">
<path d="M2455 4976 c-22 -13 -141 -82 -265 -153 -124 -72 -238 -138 -255
-147 -16 -9 -46 -26 -65 -37 -73 -44 -366 -213 -395 -228 -16 -9 -31 -19 -33
-23 -2 -5 -7 -8 -11 -8 -4 0 -75 -39 -157 -86 -82 -48 -221 -128 -309 -179
-88 -51 -221 -127 -295 -170 -74 -43 -151 -87 -170 -97 -19 -11 -65 -38 -101
-60 l-66 -41 1 -1249 1 -1250 155 -90 c85 -49 178 -102 205 -117 28 -16 176
-101 330 -191 154 -89 300 -173 325 -187 25 -14 86 -49 135 -78 50 -29 106
-62 125 -73 33 -18 480 -277 705 -407 55 -32 119 -69 143 -82 l43 -24 342 197
c188 109 425 246 527 304 102 59 257 149 345 200 88 51 180 104 205 118 25 13
50 28 55 32 6 5 30 19 55 32 129 70 626 361 631 370 4 6 6 570 6 1254 l-1
1244 -100 59 c-56 32 -117 68 -136 79 -19 11 -75 43 -123 71 -49 28 -93 51
-98 51 -5 0 -9 5 -9 10 0 6 -4 10 -10 10 -5 0 -55 27 -111 60 -55 33 -102 60
-103 60 -2 0 -76 43 -165 95 -90 52 -164 95 -165 95 -2 0 -76 43 -165 95 -90
52 -165 95 -167 95 -2 0 -27 15 -56 33 -29 19 -75 46 -103 62 -27 15 -182 103
-342 196 -161 93 -299 172 -305 174 -7 2 -31 -6 -53 -19z m951 -900 l909 -524
3 -1050 2 -1050 -302 -175 c-167 -96 -528 -304 -803 -462 -275 -158 -548 -316
-607 -351 l-107 -63 -773 445 c-425 246 -834 481 -908 524 l-135 78 0 1052 0
1052 905 523 c498 288 906 524 906 524 1 1 410 -235 910 -523z"/>
<path d="M2231 3759 c-387 -86 -709 -337 -883 -689 -77 -157 -111 -277 -129
-457 -28 -292 51 -593 222 -844 179 -262 462 -452 783 -526 153 -36 381 -38
533 -5 544 118 941 543 1018 1091 24 166 15 318 -29 497 -115 470 -518 844
-1011 939 -116 22 -393 19 -504 -6z m503 -378 c312 -84 558 -329 648 -646 19
-68 22 -103 22 -235 0 -174 -16 -250 -79 -387 -99 -215 -315 -407 -536 -478
-442 -140 -906 56 -1107 467 -70 144 -87 219 -87 398 0 177 16 252 84 395 118
247 351 432 624 495 112 26 317 22 431 -9z"/>
<path d="M2516 3124 c-14 -13 -16 -56 -16 -320 l0 -304 -199 0 c-236 0 -231 2
-231 -110 0 -111 -18 -105 310 -108 243 -2 285 -1 306 13 l24 15 0 403 c0 300
-3 406 -12 415 -19 19 -163 16 -182 -4z"/>
</g>
</svg>
